<svg xmlns="http://www.w3.org/2000/svg" xmlns:xlink="http://www.w3.org/1999/xlink" width="500" zoomAndPan="magnify" viewBox="0 0 375 374.999991" height="500" preserveAspectRatio="xMidYMid meet" version="1.0"><defs><g/><clipPath id="id1"><path d="M 30.066406 51 L 290 51 L 290 169 L 30.066406 169 Z M 30.066406 51 " clip-rule="nonzero"/></clipPath><clipPath id="id2"><path d="M 99 155 L 131 155 L 131 230.328125 L 99 230.328125 Z M 99 155 " clip-rule="nonzero"/></clipPath><clipPath id="id3"><path d="M 255 90 L 287 90 L 287 230.328125 L 255 230.328125 Z M 255 90 " clip-rule="nonzero"/></clipPath><clipPath id="id4"><path d="M 151 131 L 183 131 L 183 230.328125 L 151 230.328125 Z M 151 131 " clip-rule="nonzero"/></clipPath><clipPath id="id5"><path d="M 203 106 L 235 106 L 235 230.328125 L 203 230.328125 Z M 203 106 " clip-rule="nonzero"/></clipPath><clipPath id="id6"><path d="M 255 47.328125 L 324 47.328125 L 324 111 L 255 111 Z M 255 47.328125 " clip-rule="nonzero"/></clipPath></defs><g clip-path="url(#id1)"><path fill="#56aeff" d="M 30.148438 139.871094 L 119.957031 98.980469 L 108.144531 139.871094 L 280.246094 51.84375 L 289.898438 74.039062 L 86.191406 168.835938 L 105.410156 117.152344 L 30.148438 139.871094 " fill-opacity="1" fill-rule="nonzero"/></g><g clip-path="url(#id2)"><path fill="#051d40" d="M 99.835938 230.320312 L 130.269531 230.320312 L 130.269531 155.285156 L 99.835938 169.449219 L 99.835938 230.320312 " fill-opacity="1" fill-rule="nonzero"/></g><g clip-path="url(#id3)"><path fill="#051d40" d="M 255.816406 118.933594 L 255.816406 230.320312 L 286.25 230.320312 L 286.25 90.800781 L 255.816406 118.933594 " fill-opacity="1" fill-rule="nonzero"/></g><g clip-path="url(#id4)"><path fill="#051d40" d="M 151.828125 230.320312 L 182.265625 230.320312 L 182.265625 131.089844 L 151.828125 145.25 L 151.828125 230.320312 " fill-opacity="1" fill-rule="nonzero"/></g><g clip-path="url(#id5)"><path fill="#051d40" d="M 203.820312 230.320312 L 234.257812 230.320312 L 234.257812 106.894531 L 203.820312 121.054688 L 203.820312 230.320312 " fill-opacity="1" fill-rule="nonzero"/></g><g clip-path="url(#id6)"><path fill="#56aeff" d="M 323.984375 47.332031 L 255.816406 47.332031 L 255.816406 110.335938 Z M 323.984375 47.332031 " fill-opacity="1" fill-rule="nonzero"/></g><g fill="#000000" fill-opacity="1"><g transform="translate(69.809502, 278.647988)"><g><path d="M 1.234375 0 L 1.234375 -0.5625 L 2.34375 -1 C 3.09375 -1.269531 3.585938 -1.625 3.828125 -2.0625 C 4.078125 -2.507812 4.203125 -3.09375 4.203125 -3.8125 L 4.203125 -33.0625 C 4.203125 -33.8125 4.078125 -34.410156 3.828125 -34.859375 C 3.585938 -35.304688 3.09375 -35.660156 2.34375 -35.921875 L 1.234375 -36.375 L 1.234375 -36.921875 L 15.4375 -36.921875 L 15.4375 -36.375 L 14.484375 -35.984375 C 13.773438 -35.722656 13.289062 -35.375 13.03125 -34.9375 C 12.769531 -34.507812 12.640625 -33.925781 12.640625 -33.1875 L 12.640625 -19.578125 L 26.015625 -19.578125 L 26.015625 -33.1875 C 26.015625 -33.925781 25.894531 -34.507812 25.65625 -34.9375 C 25.414062 -35.375 24.921875 -35.722656 24.171875 -35.984375 L 23.171875 -36.375 L 23.171875 -36.921875 L 37.4375 -36.921875 L 37.4375 -36.375 L 36.3125 -35.921875 C 35.601562 -35.660156 35.117188 -35.304688 34.859375 -34.859375 C 34.597656 -34.410156 34.46875 -33.8125 34.46875 -33.0625 L 34.46875 -3.8125 C 34.46875 -3.09375 34.597656 -2.507812 34.859375 -2.0625 C 35.117188 -1.625 35.601562 -1.269531 36.3125 -1 L 37.4375 -0.5625 L 37.4375 0 L 23.171875 0 L 23.171875 -0.5625 L 24.171875 -0.890625 C 24.921875 -1.191406 25.414062 -1.554688 25.65625 -1.984375 C 25.894531 -2.410156 26.015625 -3 26.015625 -3.75 L 26.015625 -18.46875 L 12.640625 -18.46875 L 12.640625 -3.75 C 12.640625 -2.363281 13.253906 -1.410156 14.484375 -0.890625 L 15.4375 -0.5625 L 15.4375 0 Z M 1.234375 0 "/></g></g></g><g fill="#000000" fill-opacity="1"><g transform="translate(108.473299, 278.647988)"><g><path d="M 0.453125 0 L 0.453125 -0.5625 L 1.84375 -1.0625 C 2.59375 -1.363281 3.171875 -1.726562 3.578125 -2.15625 C 3.992188 -2.582031 4.332031 -3.1875 4.59375 -3.96875 L 16.109375 -37.046875 L 20.875 -37.046875 L 32.234375 -3.75 C 32.523438 -2.925781 32.859375 -2.300781 33.234375 -1.875 C 33.609375 -1.445312 34.1875 -1.082031 34.96875 -0.78125 L 35.640625 -0.5625 L 35.640625 0 L 21.4375 0 L 21.4375 -0.5625 L 22.265625 -0.84375 C 23.046875 -1.132812 23.519531 -1.550781 23.6875 -2.09375 C 23.863281 -2.632812 23.835938 -3.28125 23.609375 -4.03125 L 20.984375 -12.078125 L 8.5625 -12.078125 L 5.875 -4.203125 C 5.613281 -3.378906 5.53125 -2.722656 5.625 -2.234375 C 5.71875 -1.753906 6.15625 -1.363281 6.9375 -1.0625 L 8.171875 -0.5625 L 8.171875 0 Z M 8.953125 -13.203125 L 20.640625 -13.203125 L 15 -30.609375 Z M 8.953125 -13.203125 "/></g></g></g><g fill="#000000" fill-opacity="1"><g transform="translate(144.843, 278.647988)"><g><path d="M 1.953125 0 L 1.953125 -0.5625 L 3.8125 -1.125 C 4.476562 -1.3125 4.957031 -1.671875 5.25 -2.203125 C 5.550781 -2.742188 5.703125 -3.390625 5.703125 -4.140625 L 5.703125 -31.046875 C 5.296875 -31.941406 4.96875 -32.613281 4.71875 -33.0625 C 4.476562 -33.507812 4.207031 -33.890625 3.90625 -34.203125 C 3.613281 -34.523438 3.207031 -34.929688 2.6875 -35.421875 L 1.734375 -36.375 L 1.734375 -36.921875 L 11.640625 -36.921875 L 30.21875 -11.578125 L 30.21875 -32.671875 C 30.21875 -33.421875 30.09375 -34.09375 29.84375 -34.6875 C 29.601562 -35.289062 29.113281 -35.679688 28.375 -35.859375 L 26.515625 -36.375 L 26.515625 -36.921875 L 34.515625 -36.921875 L 34.515625 -36.375 L 33.015625 -35.859375 C 32.335938 -35.640625 31.925781 -35.25 31.78125 -34.6875 C 31.632812 -34.132812 31.5625 -33.484375 31.5625 -32.734375 L 31.5625 0.171875 L 28.421875 0.171875 L 7.046875 -29.203125 L 7.046875 -4.140625 C 7.046875 -3.390625 7.15625 -2.753906 7.375 -2.234375 C 7.601562 -1.710938 8.070312 -1.34375 8.78125 -1.125 L 10.46875 -0.5625 L 10.46875 0 Z M 1.953125 0 "/></g></g></g><g fill="#000000" fill-opacity="1"><g transform="translate(181.380545, 278.647988)"><g><path d="M 1.234375 0 L 1.234375 -0.5625 L 2.40625 -1 C 3.601562 -1.488281 4.203125 -2.441406 4.203125 -3.859375 L 4.203125 -33.0625 C 4.203125 -34.5625 3.601562 -35.515625 2.40625 -35.921875 L 1.234375 -36.375 L 1.234375 -36.921875 L 16 -36.921875 C 19.957031 -36.921875 23.363281 -36.1875 26.21875 -34.71875 C 29.070312 -33.25 31.269531 -31.140625 32.8125 -28.390625 C 34.363281 -25.648438 35.140625 -22.359375 35.140625 -18.515625 C 35.140625 -14.597656 34.300781 -11.257812 32.625 -8.5 C 30.945312 -5.738281 28.601562 -3.628906 25.59375 -2.171875 C 22.59375 -0.722656 19.0625 0 15 0 Z M 12.59375 -1.125 L 15 -1.125 C 17.6875 -1.125 19.847656 -1.65625 21.484375 -2.71875 C 23.128906 -3.78125 24.332031 -5.566406 25.09375 -8.078125 C 25.851562 -10.597656 26.234375 -14.0625 26.234375 -18.46875 C 26.234375 -22.863281 25.851562 -26.320312 25.09375 -28.84375 C 24.332031 -31.363281 23.148438 -33.15625 21.546875 -34.21875 C 19.941406 -35.28125 17.832031 -35.8125 15.21875 -35.8125 L 12.59375 -35.8125 Z M 12.59375 -1.125 "/></g></g></g><g fill="#000000" fill-opacity="1"><g transform="translate(217.638348, 278.647988)"><g><path d="M 1.234375 0 L 1.234375 -0.5625 L 2.40625 -0.953125 C 3.15625 -1.210938 3.640625 -1.554688 3.859375 -1.984375 C 4.085938 -2.410156 4.203125 -3.019531 4.203125 -3.8125 L 4.203125 -33.0625 C 4.203125 -33.8125 4.097656 -34.398438 3.890625 -34.828125 C 3.679688 -35.253906 3.222656 -35.597656 2.515625 -35.859375 L 1.234375 -36.375 L 1.234375 -36.921875 L 17.234375 -36.921875 C 21.640625 -36.921875 25.015625 -36.09375 27.359375 -34.4375 C 29.710938 -32.78125 30.890625 -30.476562 30.890625 -27.53125 C 30.890625 -25.882812 30.269531 -24.238281 29.03125 -22.59375 C 27.800781 -20.957031 25.863281 -19.691406 23.21875 -18.796875 L 31 -3.359375 C 31.332031 -2.722656 31.710938 -2.207031 32.140625 -1.8125 C 32.566406 -1.425781 33.140625 -1.082031 33.859375 -0.78125 L 34.578125 -0.5 L 34.578125 0 L 24.5625 0 L 16.28125 -17.625 L 12.484375 -17.625 L 12.484375 -3.8125 C 12.484375 -3.09375 12.59375 -2.507812 12.8125 -2.0625 C 13.039062 -1.625 13.507812 -1.289062 14.21875 -1.0625 L 15.5625 -0.5625 L 15.5625 0 Z M 12.484375 -18.75 L 15.15625 -18.75 C 17.84375 -18.75 19.78125 -19.460938 20.96875 -20.890625 C 22.164062 -22.328125 22.765625 -24.46875 22.765625 -27.3125 C 22.765625 -30.175781 22.207031 -32.304688 21.09375 -33.703125 C 19.976562 -35.109375 18.09375 -35.8125 15.4375 -35.8125 L 12.484375 -35.8125 Z M 12.484375 -18.75 "/></g></g></g><g fill="#000000" fill-opacity="1"><g transform="translate(252.777076, 278.647988)"><g><path d="M 1.234375 0 L 1.234375 -0.5625 L 2.515625 -1.0625 C 3.148438 -1.320312 3.585938 -1.664062 3.828125 -2.09375 C 4.078125 -2.519531 4.203125 -3.109375 4.203125 -3.859375 L 4.203125 -33.0625 C 4.203125 -33.8125 4.097656 -34.398438 3.890625 -34.828125 C 3.679688 -35.253906 3.222656 -35.597656 2.515625 -35.859375 L 1.234375 -36.375 L 1.234375 -36.921875 L 28.03125 -36.921875 L 28.375 -28.3125 L 27.8125 -28.3125 L 25.40625 -33.578125 C 25.070312 -34.242188 24.71875 -34.78125 24.34375 -35.1875 C 23.96875 -35.601562 23.40625 -35.8125 22.65625 -35.8125 L 12.59375 -35.8125 L 12.59375 -19.640625 L 18.578125 -19.640625 C 19.328125 -19.640625 19.894531 -19.832031 20.28125 -20.21875 C 20.675781 -20.613281 21.019531 -21.148438 21.3125 -21.828125 L 22.4375 -24.0625 L 23 -24.0625 L 23 -13.984375 L 22.4375 -13.984375 L 21.3125 -16.34375 C 20.976562 -17.007812 20.625 -17.535156 20.25 -17.921875 C 19.882812 -18.316406 19.328125 -18.515625 18.578125 -18.515625 L 12.59375 -18.515625 L 12.59375 -1.125 L 23.890625 -1.125 C 24.640625 -1.125 25.21875 -1.316406 25.625 -1.703125 C 26.03125 -2.097656 26.367188 -2.648438 26.640625 -3.359375 L 28.921875 -8.609375 L 29.484375 -8.609375 L 29.15625 0 Z M 1.234375 0 "/></g></g></g><g fill="#000000" fill-opacity="1"><g transform="translate(283.831199, 278.647988)"><g><path d="M 1.234375 0 L 1.234375 -0.5625 L 2.40625 -1 C 3.601562 -1.488281 4.203125 -2.441406 4.203125 -3.859375 L 4.203125 -33.0625 C 4.203125 -34.5625 3.601562 -35.515625 2.40625 -35.921875 L 1.234375 -36.375 L 1.234375 -36.921875 L 16 -36.921875 C 19.957031 -36.921875 23.363281 -36.1875 26.21875 -34.71875 C 29.070312 -33.25 31.269531 -31.140625 32.8125 -28.390625 C 34.363281 -25.648438 35.140625 -22.359375 35.140625 -18.515625 C 35.140625 -14.597656 34.300781 -11.257812 32.625 -8.5 C 30.945312 -5.738281 28.601562 -3.628906 25.59375 -2.171875 C 22.59375 -0.722656 19.0625 0 15 0 Z M 12.59375 -1.125 L 15 -1.125 C 17.6875 -1.125 19.847656 -1.65625 21.484375 -2.71875 C 23.128906 -3.78125 24.332031 -5.566406 25.09375 -8.078125 C 25.851562 -10.597656 26.234375 -14.0625 26.234375 -18.46875 C 26.234375 -22.863281 25.851562 -26.320312 25.09375 -28.84375 C 24.332031 -31.363281 23.148438 -33.15625 21.546875 -34.21875 C 19.941406 -35.28125 17.832031 -35.8125 15.21875 -35.8125 L 12.59375 -35.8125 Z M 12.59375 -1.125 "/></g></g></g><g fill="#000000" fill-opacity="1"><g transform="translate(96.481135, 314.149922)"><g><path d="M 17.4375 -6.28125 L 18.296875 -6.28125 C 18.359375 -5.84375 18.414062 -5.347656 18.46875 -4.796875 C 18.519531 -4.253906 18.5625 -3.703125 18.59375 -3.140625 C 18.632812 -2.578125 18.660156 -2.019531 18.671875 -1.46875 C 18.679688 -0.925781 18.675781 -0.4375 18.65625 0 L 1.28125 0 L 1.28125 -1.671875 L 14.890625 -21.203125 L 4.8125 -21.203125 L 2.8125 -16.625 L 2 -16.625 C 1.925781 -17.082031 1.863281 -17.582031 1.8125 -18.125 C 1.757812 -18.664062 1.71875 -19.21875 1.6875 -19.78125 C 1.65625 -20.351562 1.632812 -20.90625 1.625 -21.4375 C 1.613281 -21.976562 1.609375 -22.46875 1.609375 -22.90625 L 18.328125 -22.90625 L 18.328125 -21.203125 L 4.78125 -1.703125 L 15.4375 -1.703125 Z M 17.4375 -6.28125 "/></g></g></g><g fill="#000000" fill-opacity="1"><g transform="translate(118.791896, 314.149922)"><g><path d="M 14.59375 -2.296875 C 14.414062 -1.921875 14.140625 -1.566406 13.765625 -1.234375 C 13.398438 -0.910156 12.976562 -0.628906 12.5 -0.390625 C 12.019531 -0.148438 11.492188 0.0351562 10.921875 0.171875 C 10.359375 0.316406 9.78125 0.390625 9.1875 0.390625 C 7.90625 0.390625 6.769531 0.191406 5.78125 -0.203125 C 4.800781 -0.609375 3.984375 -1.1875 3.328125 -1.9375 C 2.679688 -2.695312 2.1875 -3.597656 1.84375 -4.640625 C 1.507812 -5.691406 1.34375 -6.867188 1.34375 -8.171875 C 1.34375 -10.972656 1.984375 -13.101562 3.265625 -14.5625 C 4.554688 -16.019531 6.378906 -16.75 8.734375 -16.75 C 9.492188 -16.75 10.242188 -16.644531 10.984375 -16.4375 C 11.734375 -16.226562 12.394531 -15.882812 12.96875 -15.40625 C 13.550781 -14.925781 14.019531 -14.285156 14.375 -13.484375 C 14.738281 -12.691406 14.921875 -11.707031 14.921875 -10.53125 C 14.921875 -10.164062 14.90625 -9.789062 14.875 -9.40625 C 14.84375 -9.019531 14.78125 -8.609375 14.6875 -8.171875 L 4.484375 -8.171875 C 4.484375 -7.265625 4.597656 -6.410156 4.828125 -5.609375 C 5.054688 -4.816406 5.398438 -4.125 5.859375 -3.53125 C 6.316406 -2.945312 6.894531 -2.484375 7.59375 -2.140625 C 8.289062 -1.804688 9.109375 -1.640625 10.046875 -1.640625 C 10.804688 -1.640625 11.578125 -1.75 12.359375 -1.96875 C 13.148438 -2.1875 13.742188 -2.46875 14.140625 -2.8125 Z M 8.609375 -15.3125 C 7.359375 -15.3125 6.40625 -14.890625 5.75 -14.046875 C 5.101562 -13.210938 4.710938 -11.738281 4.578125 -9.625 L 11.78125 -9.625 C 11.800781 -9.8125 11.816406 -10 11.828125 -10.1875 C 11.835938 -10.375 11.84375 -10.554688 11.84375 -10.734375 C 11.84375 -12.128906 11.582031 -13.238281 11.0625 -14.0625 C 10.539062 -14.894531 9.722656 -15.3125 8.609375 -15.3125 Z M 8.609375 -15.3125 "/></g></g></g><g fill="#000000" fill-opacity="1"><g transform="translate(137.602541, 314.149922)"><g><path d="M 7.984375 -13.90625 C 7.742188 -13.769531 7.441406 -13.5 7.078125 -13.09375 C 6.722656 -12.695312 6.40625 -12.109375 6.125 -11.328125 L 6.125 -1.609375 C 6.550781 -1.554688 6.984375 -1.46875 7.421875 -1.34375 C 7.859375 -1.226562 8.296875 -1.050781 8.734375 -0.8125 L 8.734375 0 L 1.015625 0 L 1.015625 -0.8125 C 1.410156 -1.03125 1.78125 -1.191406 2.125 -1.296875 C 2.476562 -1.410156 2.828125 -1.515625 3.171875 -1.609375 L 3.171875 -14.46875 L 1.015625 -14.71875 L 1.015625 -15.578125 C 1.710938 -15.878906 2.429688 -16.125 3.171875 -16.3125 C 3.910156 -16.5 4.617188 -16.644531 5.296875 -16.75 L 6.125 -16.75 L 6.125 -13.28125 L 6.25 -13.28125 C 6.445312 -13.71875 6.722656 -14.15625 7.078125 -14.59375 C 7.441406 -15.03125 7.859375 -15.421875 8.328125 -15.765625 C 8.796875 -16.117188 9.304688 -16.382812 9.859375 -16.5625 C 10.421875 -16.75 10.992188 -16.8125 11.578125 -16.75 C 11.734375 -16.46875 11.867188 -16.15625 11.984375 -15.8125 C 12.109375 -15.476562 12.222656 -15.125 12.328125 -14.75 L 12.328125 -13.90625 Z M 7.984375 -13.90625 "/></g></g></g><g fill="#000000" fill-opacity="1"><g transform="translate(152.520506, 314.149922)"><g><path d="M 1.34375 -8.171875 C 1.34375 -9.546875 1.519531 -10.765625 1.875 -11.828125 C 2.238281 -12.890625 2.757812 -13.785156 3.4375 -14.515625 C 4.113281 -15.242188 4.925781 -15.796875 5.875 -16.171875 C 6.820312 -16.554688 7.875 -16.75 9.03125 -16.75 C 10.382812 -16.75 11.550781 -16.539062 12.53125 -16.125 C 13.507812 -15.71875 14.3125 -15.132812 14.9375 -14.375 C 15.5625 -13.625 16.019531 -12.722656 16.3125 -11.671875 C 16.601562 -10.628906 16.75 -9.460938 16.75 -8.171875 C 16.75 -5.429688 16.050781 -3.316406 14.65625 -1.828125 C 13.257812 -0.347656 11.382812 0.390625 9.03125 0.390625 C 7.71875 0.390625 6.582031 0.191406 5.625 -0.203125 C 4.664062 -0.609375 3.867188 -1.1875 3.234375 -1.9375 C 2.609375 -2.695312 2.132812 -3.601562 1.8125 -4.65625 C 1.5 -5.71875 1.34375 -6.890625 1.34375 -8.171875 Z M 4.484375 -8.171875 C 4.484375 -7.191406 4.570312 -6.265625 4.75 -5.390625 C 4.9375 -4.523438 5.234375 -3.769531 5.640625 -3.125 C 6.046875 -2.476562 6.578125 -1.96875 7.234375 -1.59375 C 7.890625 -1.226562 8.675781 -1.046875 9.59375 -1.046875 C 10.769531 -1.046875 11.734375 -1.625 12.484375 -2.78125 C 13.234375 -3.9375 13.609375 -5.734375 13.609375 -8.171875 C 13.609375 -9.179688 13.515625 -10.113281 13.328125 -10.96875 C 13.148438 -11.832031 12.863281 -12.585938 12.46875 -13.234375 C 12.070312 -13.878906 11.566406 -14.382812 10.953125 -14.75 C 10.347656 -15.125 9.617188 -15.3125 8.765625 -15.3125 C 7.484375 -15.3125 6.445312 -14.734375 5.65625 -13.578125 C 4.875 -12.421875 4.484375 -10.617188 4.484375 -8.171875 Z M 4.484375 -8.171875 "/></g></g></g><g fill="#000000" fill-opacity="1"><g transform="translate(172.966726, 314.149922)"><g/></g></g><g fill="#000000" fill-opacity="1"><g transform="translate(183.272369, 314.149922)"><g><path d="M 0.484375 -15.578125 C 1.316406 -16.097656 2.191406 -16.46875 3.109375 -16.6875 L 3.109375 -19.46875 C 3.390625 -19.707031 3.71875 -19.921875 4.09375 -20.109375 C 4.476562 -20.296875 4.859375 -20.472656 5.234375 -20.640625 L 6.046875 -20.640625 L 6.046875 -16.359375 L 10.953125 -16.359375 L 10.953125 -14.71875 L 6.046875 -14.71875 L 6.046875 -5.234375 C 6.046875 -3.921875 6.253906 -2.992188 6.671875 -2.453125 C 7.085938 -1.910156 7.710938 -1.640625 8.546875 -1.640625 C 8.929688 -1.640625 9.414062 -1.664062 10 -1.71875 C 10.59375 -1.769531 11.097656 -1.875 11.515625 -2.03125 L 11.75 -1.53125 C 11.570312 -1.34375 11.320312 -1.140625 11 -0.921875 C 10.6875 -0.703125 10.328125 -0.492188 9.921875 -0.296875 C 9.523438 -0.0976562 9.085938 0.0625 8.609375 0.1875 C 8.128906 0.320312 7.632812 0.390625 7.125 0.390625 C 5.820312 0.390625 4.828125 0.0195312 4.140625 -0.71875 C 3.453125 -1.457031 3.109375 -2.65625 3.109375 -4.3125 L 3.109375 -14.71875 L 0.484375 -14.71875 Z M 0.484375 -15.578125 "/></g></g></g><g fill="#000000" fill-opacity="1"><g transform="translate(197.765087, 314.149922)"><g><path d="M 1.34375 -8.171875 C 1.34375 -9.546875 1.519531 -10.765625 1.875 -11.828125 C 2.238281 -12.890625 2.757812 -13.785156 3.4375 -14.515625 C 4.113281 -15.242188 4.925781 -15.796875 5.875 -16.171875 C 6.820312 -16.554688 7.875 -16.75 9.03125 -16.75 C 10.382812 -16.75 11.550781 -16.539062 12.53125 -16.125 C 13.507812 -15.71875 14.3125 -15.132812 14.9375 -14.375 C 15.5625 -13.625 16.019531 -12.722656 16.3125 -11.671875 C 16.601562 -10.628906 16.75 -9.460938 16.75 -8.171875 C 16.75 -5.429688 16.050781 -3.316406 14.65625 -1.828125 C 13.257812 -0.347656 11.382812 0.390625 9.03125 0.390625 C 7.71875 0.390625 6.582031 0.191406 5.625 -0.203125 C 4.664062 -0.609375 3.867188 -1.1875 3.234375 -1.9375 C 2.609375 -2.695312 2.132812 -3.601562 1.8125 -4.65625 C 1.5 -5.71875 1.34375 -6.890625 1.34375 -8.171875 Z M 4.484375 -8.171875 C 4.484375 -7.191406 4.570312 -6.265625 4.75 -5.390625 C 4.9375 -4.523438 5.234375 -3.769531 5.640625 -3.125 C 6.046875 -2.476562 6.578125 -1.96875 7.234375 -1.59375 C 7.890625 -1.226562 8.675781 -1.046875 9.59375 -1.046875 C 10.769531 -1.046875 11.734375 -1.625 12.484375 -2.78125 C 13.234375 -3.9375 13.609375 -5.734375 13.609375 -8.171875 C 13.609375 -9.179688 13.515625 -10.113281 13.328125 -10.96875 C 13.148438 -11.832031 12.863281 -12.585938 12.46875 -13.234375 C 12.070312 -13.878906 11.566406 -14.382812 10.953125 -14.75 C 10.347656 -15.125 9.617188 -15.3125 8.765625 -15.3125 C 7.484375 -15.3125 6.445312 -14.734375 5.65625 -13.578125 C 4.875 -12.421875 4.484375 -10.617188 4.484375 -8.171875 Z M 4.484375 -8.171875 "/></g></g></g><g fill="#000000" fill-opacity="1"><g transform="translate(218.211301, 314.149922)"><g/></g></g><g fill="#000000" fill-opacity="1"><g transform="translate(228.516944, 314.149922)"><g><path d="M 13.90625 0 L 4.359375 0 L 4.359375 -0.953125 C 4.898438 -1.191406 5.445312 -1.398438 6 -1.578125 C 6.5625 -1.765625 7.125 -1.925781 7.6875 -2.0625 L 7.6875 -18.125 L 7.8125 -20.0625 C 7.207031 -19.820312 6.578125 -19.648438 5.921875 -19.546875 C 5.265625 -19.453125 4.585938 -19.414062 3.890625 -19.4375 L 3.734375 -20.21875 C 4.734375 -20.539062 5.765625 -20.945312 6.828125 -21.4375 C 7.898438 -21.9375 8.894531 -22.554688 9.8125 -23.296875 L 10.640625 -23.296875 L 10.640625 -2.0625 C 11.179688 -1.925781 11.722656 -1.765625 12.265625 -1.578125 C 12.816406 -1.398438 13.363281 -1.191406 13.90625 -0.953125 Z M 13.90625 0 "/></g></g></g><g fill="#000000" fill-opacity="1"><g transform="translate(248.308919, 314.149922)"><g><path d="M 1.140625 -11.453125 C 1.140625 -15.378906 1.796875 -18.332031 3.109375 -20.3125 C 4.421875 -22.300781 6.296875 -23.296875 8.734375 -23.296875 C 11.367188 -23.296875 13.296875 -22.316406 14.515625 -20.359375 C 15.742188 -18.410156 16.359375 -15.441406 16.359375 -11.453125 C 16.359375 -7.523438 15.695312 -4.566406 14.375 -2.578125 C 13.0625 -0.597656 11.117188 0.390625 8.546875 0.390625 C 7.210938 0.390625 6.078125 0.125 5.140625 -0.40625 C 4.203125 -0.9375 3.4375 -1.707031 2.84375 -2.71875 C 2.257812 -3.738281 1.828125 -4.976562 1.546875 -6.4375 C 1.273438 -7.90625 1.140625 -9.578125 1.140625 -11.453125 Z M 4.28125 -11.453125 C 4.28125 -9.878906 4.359375 -8.445312 4.515625 -7.15625 C 4.671875 -5.875 4.914062 -4.769531 5.25 -3.84375 C 5.59375 -2.914062 6.03125 -2.203125 6.5625 -1.703125 C 7.09375 -1.203125 7.738281 -0.953125 8.5 -0.953125 C 10.226562 -0.953125 11.445312 -1.800781 12.15625 -3.5 C 12.863281 -5.195312 13.21875 -7.847656 13.21875 -11.453125 C 13.21875 -13.023438 13.148438 -14.453125 13.015625 -15.734375 C 12.890625 -17.023438 12.648438 -18.128906 12.296875 -19.046875 C 11.953125 -19.960938 11.488281 -20.671875 10.90625 -21.171875 C 10.332031 -21.671875 9.609375 -21.921875 8.734375 -21.921875 C 7.097656 -21.921875 5.945312 -21.070312 5.28125 -19.375 C 4.613281 -17.6875 4.28125 -15.046875 4.28125 -11.453125 Z M 4.28125 -11.453125 "/></g></g></g><g fill="#000000" fill-opacity="1"><g transform="translate(268.100894, 314.149922)"><g><path d="M 1.140625 -11.453125 C 1.140625 -15.378906 1.796875 -18.332031 3.109375 -20.3125 C 4.421875 -22.300781 6.296875 -23.296875 8.734375 -23.296875 C 11.367188 -23.296875 13.296875 -22.316406 14.515625 -20.359375 C 15.742188 -18.410156 16.359375 -15.441406 16.359375 -11.453125 C 16.359375 -7.523438 15.695312 -4.566406 14.375 -2.578125 C 13.0625 -0.597656 11.117188 0.390625 8.546875 0.390625 C 7.210938 0.390625 6.078125 0.125 5.140625 -0.40625 C 4.203125 -0.9375 3.4375 -1.707031 2.84375 -2.71875 C 2.257812 -3.738281 1.828125 -4.976562 1.546875 -6.4375 C 1.273438 -7.90625 1.140625 -9.578125 1.140625 -11.453125 Z M 4.28125 -11.453125 C 4.28125 -9.878906 4.359375 -8.445312 4.515625 -7.15625 C 4.671875 -5.875 4.914062 -4.769531 5.25 -3.84375 C 5.59375 -2.914062 6.03125 -2.203125 6.5625 -1.703125 C 7.09375 -1.203125 7.738281 -0.953125 8.5 -0.953125 C 10.226562 -0.953125 11.445312 -1.800781 12.15625 -3.5 C 12.863281 -5.195312 13.21875 -7.847656 13.21875 -11.453125 C 13.21875 -13.023438 13.148438 -14.453125 13.015625 -15.734375 C 12.890625 -17.023438 12.648438 -18.128906 12.296875 -19.046875 C 11.953125 -19.960938 11.488281 -20.671875 10.90625 -21.171875 C 10.332031 -21.671875 9.609375 -21.921875 8.734375 -21.921875 C 7.097656 -21.921875 5.945312 -21.070312 5.28125 -19.375 C 4.613281 -17.6875 4.28125 -15.046875 4.28125 -11.453125 Z M 4.28125 -11.453125 "/></g></g></g></svg>